<?xml version="1.0" encoding="UTF-8"?>
<svg xmlns="http://www.w3.org/2000/svg" version="1.1" viewBox="0 0 800 800">
  <g>
    <rect fill="#1d63ed" y="0" width="800" height="800"/>
    <path fill="#fff" d="M641.9,365c-12.3-8.2-44.5-11.7-67.9-5.4-1.3-23.2-13.3-42.8-35.3-59.9l-8.1-5.4-5.4,8.2c-10.7,16.1-15.2,37.6-13.6,57.1,1.3,12,5.5,25.6,13.6,35.4-30.5,17.6-58.6,13.6-183,13.6h-192.1c-.6,28,4,81.8,38.3,125.5,3.8,4.8,8,9.5,12.5,14,27.9,27.9,70.2,48.3,133.3,48.3,96.3,0,178.8-51.7,229-177,16.5.3,60.1,2.9,81.5-38.1.5-.7,5.4-10.9,5.4-10.9l-8.1-5.4h0ZM275.4,339.4h-54v53.8h54v-53.8ZM345.2,339.4h-54v53.8h54v-53.8ZM415,339.4h-54v53.8h54v-53.8ZM484.8,339.4h-54v53.8h54v-53.8ZM205.6,339.4h-54v53.8h54v-53.8ZM275.4,271.5h-54v53.8h54v-53.8ZM345.2,271.5h-54v53.8h54v-53.8ZM415,271.5h-54v53.8h54v-53.8ZM415,203.6h-54v53.8h54v-53.8Z"/>

  </g>
</svg>