<?xml version="1.0" encoding="UTF-8"?>
<svg xmlns="http://www.w3.org/2000/svg" version="1.1" viewBox="0 0 800 800">
  <g>
    <path fill="#1abcfe" d="M400,400c0-46,36.4-83.3,81.3-83.3s81.2,37.3,81.2,83.3-36.4,83.3-81.2,83.3-81.3-37.3-81.3-83.3Z"/>
    <path fill="#0acf83" d="M237.5,566.7c0-46,36.4-83.4,81.3-83.4h81.3v83.4c0,46-36.4,83.3-81.3,83.3s-81.3-37.3-81.3-83.3Z"/>
    <path fill="#ff7262" d="M400,150v166.7h81.3c44.9,0,81.2-37.3,81.2-83.4s-36.4-83.3-81.3-83.3h-81.2Z"/>
    <path fill="#f24e1e" d="M237.5,233.3c0,46,36.4,83.4,81.3,83.4h81.3v-166.7h-81.3c-44.9,0-81.3,37.3-81.3,83.3Z"/>
    <path fill="#a259ff" d="M237.5,400c0,46,36.4,83.3,81.3,83.3h81.3v-166.6h-81.3c-44.9,0-81.3,37.3-81.3,83.3Z"/>
  </g>
</svg>