<?xml version="1.0" encoding="UTF-8"?>
<svg xmlns="http://www.w3.org/2000/svg" version="1.1" viewBox="0 0 800 800">
  <g>
    <rect fill="#e10098" x="106.7" y="338.2" width="408.8" height="21.2" transform="translate(-146.5 443.8) rotate(-60)"/>
    <rect fill="#e10098" x="195.5" y="492.2" width="408.8" height="21.2"/>
    <rect fill="#e10098" x="300.6" y="435.9" width="21.2" height="236.1" transform="translate(-324.2 546.5) rotate(-60)"/>
    <rect fill="#e10098" x="478.2" y="128.2" width="21.2" height="236.1" transform="translate(31.1 546.5) rotate(-60)"/>
    <rect fill="#e10098" x="193.2" y="235.6" width="236.1" height="21.2" transform="translate(-81.4 188.6) rotate(-30)"/>
    <rect fill="#e10098" x="478.4" y="144.4" width="21.2" height="408.8" transform="translate(-108.9 291.2) rotate(-30)"/>
    <rect fill="#e10098" x="211.8" y="282" width="21.2" height="236.1"/>
    <rect fill="#e10098" x="567.1" y="282" width="21.2" height="236.1"/>
    <rect fill="#e10098" x="386.1" y="544.6" width="205.4" height="18.5" transform="translate(-211.5 318.6) rotate(-30)"/>
    <path fill="#e10098" d="M616.4,525c-12.3,21.4-39.6,28.7-60.9,16.4-21.4-12.3-28.7-39.6-16.4-60.9,12.3-21.4,39.6-28.7,60.9-16.4,0,0,0,0,0,0,21.3,12.3,28.6,39.6,16.3,60.9"/>
    <path fill="#e10098" d="M260.8,319.7c-12.3,21.4-39.6,28.7-60.9,16.4-21.4-12.3-28.7-39.6-16.4-60.9,12.3-21.4,39.6-28.7,60.9-16.4,0,0,0,0,0,0,21.3,12.3,28.6,39.6,16.3,60.9"/>
    <path fill="#e10098" d="M183.7,525c-12.3-21.3-5.1-48.6,16.3-61,21.3-12.3,48.6-5.1,61,16.3,12.3,21.3,5.1,48.6-16.3,61,0,0,0,0,0,0-21.3,12.3-48.6,5-60.9-16.3"/>
    <path fill="#e10098" d="M539.3,319.7c-12.3-21.3-5.1-48.6,16.3-61,21.3-12.3,48.6-5.1,61,16.3,12.3,21.3,5.1,48.6-16.3,61,0,0,0,0,0,0-21.3,12.3-48.6,5-60.9-16.3"/>
    <path fill="#e10098" d="M400,650c-24.6,0-44.6-20-44.6-44.6s20-44.6,44.6-44.6,44.6,20,44.6,44.6c0,24.6-19.8,44.6-44.4,44.6,0,0-.2,0-.3,0"/>
    <path fill="#e10098" d="M400,239.3c-24.6,0-44.6-20-44.6-44.6s20-44.6,44.6-44.6,44.6,20,44.6,44.6c0,24.6-19.8,44.6-44.4,44.6,0,0-.2,0-.3,0"/>
  </g>
</svg>