<?xml version="1.0" encoding="UTF-8"?>
<svg xmlns="http://www.w3.org/2000/svg"
  xmlns:xlink="http://www.w3.org/1999/xlink" version="1.1" viewBox="0 0 800 800">
  <defs>
    <style>
      .cls-1 {fill: url(#linear-gradient-3);}
      .cls-2 {fill: url(#linear-gradient-2);}
      .cls-3 {fill: url(#linear-gradient);}
    </style>
    <linearGradient id="linear-gradient" x1="-1237.4" y1="-728.9" x2="-1245" y2="-729" gradientTransform="translate(-24633.4 -25568.7) rotate(-161.7) scale(25.7 23.1)" gradientUnits="userSpaceOnUse">
      <stop offset=".2" stop-color="#999875"/>
      <stop offset=".6" stop-color="#9b9977"/>
      <stop offset=".7" stop-color="#a09f7e"/>
      <stop offset=".8" stop-color="#a9a889"/>
      <stop offset=".8" stop-color="#b7b69a"/>
      <stop offset=".9" stop-color="#c9c7b0"/>
      <stop offset=".9" stop-color="#deddcb"/>
      <stop offset="1" stop-color="#f8f6eb"/>
      <stop offset="1" stop-color="#fbf9ef"/>
    </linearGradient>
    <linearGradient id="linear-gradient-2" x1="-1236.2" y1="-715.4" x2="-1247.1" y2="-734.3" gradientTransform="translate(-24633.4 -25568.7) rotate(-161.7) scale(25.7 23.1)" gradientUnits="userSpaceOnUse">
      <stop offset="0" stop-color="#48a547"/>
      <stop offset="1" stop-color="#3f9143"/>
    </linearGradient>
    <linearGradient id="linear-gradient-3" x1="-1235.4" y1="-729.2" x2="-1243.1" y2="-724" gradientTransform="translate(-24633.4 -25568.7) rotate(-161.7) scale(25.7 23.1)" gradientUnits="userSpaceOnUse">
      <stop offset="0" stop-color="#41a247"/>
      <stop offset=".4" stop-color="#4ba74b"/>
      <stop offset="1" stop-color="#67b554"/>
      <stop offset="1" stop-color="#69b655"/>
    </linearGradient>
  </defs>
  <g>
    <path class="cls-3" d="M413.3,700l-16.1-5.3s2.1-81.4-27.3-87.1c-19.3-22.5,2.9-958.7,73.3-3.2-13.4,6.8-23.6,18.5-28.6,32.6-2.7,20.9-3.1,42-1.4,63Z"/>
    <path class="cls-2" d="M422,621.3c87.5-65.8,129.2-176.2,107.1-283.4-31.5-139-106.1-184.7-114.1-202.1-6.9-10.9-12.9-22.3-17.7-34.3l5.9,387.2s-12.3,118.3,18.7,132.6Z"/>
    <path class="cls-1" d="M389,626.5s-131.2-89.3-123.6-247.4c1.4-96.4,44.6-187.4,118.3-249.6,8.6-7.3,13.4-18.2,13-29.5,8.2,17.6,6.8,262.4,7.7,291,3.3,111.4-6.2,214.5-15.4,235.5Z"/>
  </g>
</svg>