<?xml version="1.0" encoding="UTF-8"?>
<svg xmlns="http://www.w3.org/2000/svg" version="1.1" viewBox="0 0 800 800">
  <g>
    <polygon fill="#00b0ff" points="150 418 150 201.5 337.5 309.8 337.5 382 212.5 309.8 212.5 454.1 150 418"/>
    <polygon fill="#0081cb" points="337.5 309.8 525 201.5 525 418 400 490.2 337.5 454.1 462.5 382 462.5 309.8 337.5 382 337.5 309.8"/>
    <polygon fill="#00b0ff" points="337.5 454.1 337.5 526.3 462.5 598.5 462.5 526.3 337.5 454.1"/>
    <path fill="#0081cb" d="M462.5,598.5l187.5-108.2v-144.3l-62.5,36.1v72.2l-125,72.2v72.2ZM587.5,309.8v-72.2l62.5-36.1v72.2l-62.5,36.1Z"/>
  </g>
</svg>