<?xml version="1.0" encoding="UTF-8"?>
<svg xmlns="http://www.w3.org/2000/svg" version="1.1" viewBox="0 0 800 800">
  <g fill="#fff">
    <path d="M604.7,316h145.3v26.8h-57.7v141.1h-28.8v-141.1h-58.9v-26.8Z"/>
    <path d="M365.6,316v26.8h-116.5v43.2h93.7v26.8h-93.7v44.3h116.5v26.8h-145.3v-141.1h0v-26.8h145.3Z"/>
    <path d="M438.2,316h-37.7l135.1,167.9h37.8l-67.6-83.9,67.5-83.9h-37.7c0,0-48.6,60.4-48.6,60.4l-48.8-60.6Z"/>
    <path d="M476.9,436l-18.9-23.5-57.7,71.6h37.8l38.7-48.1Z"/>
    <path class="cls-1" d="M221.3,483.9l-135.3-168h-36v167.9h28.8v-132l106.3,132.1h36.2Z"/>
  </g>
</svg>