<?xml version="1.0" encoding="UTF-8"?>
<svg xmlns="http://www.w3.org/2000/svg" version="1.1" viewBox="0 0 800 800">
  <g>
    <path fill="#3d8c36" d="M400.1,681.8c-7.5,0-15-2-21.7-5.8l-69-40.8c-10.3-5.8-5.3-7.8-1.9-9,13.7-4.8,16.5-5.9,31.2-14.2,1.5-.9,3.6-.6,5.1.4l53,31.4c1.9,1,4.6,1,6.4,0l206.5-119.2c1.9-1.1,3.2-3.3,3.2-5.6v-238.3c0-2.4-1.2-4.5-3.2-5.7l-206.5-119.1c-1.9-1.1-4.4-1.1-6.4,0l-206.4,119.1c-2,1.1-3.3,3.4-3.3,5.6v238.3c0,2.3,1.2,4.4,3.2,5.5l56.6,32.7c30.7,15.4,49.5-2.7,49.5-20.9v-235.2c0-3.4,2.6-5.9,6-5.9h26.2c3.3,0,5.9,2.6,5.9,5.9v235.3c0,40.9-22.3,64.5-61.2,64.5s-21.4,0-47.6-12.9l-54.2-31.2c-13.4-7.8-21.7-22.2-21.7-37.7v-238.3c0-15.5,8.3-30,21.7-37.6l206.8-119.3c13.1-7.4,30.5-7.4,43.4,0l206.5,119.3c13.3,7.7,21.7,22.1,21.7,37.6v238.3c0,15.5-8.3,29.9-21.7,37.6l-206.5,119.3c-6.6,3.8-14.1,5.8-21.8,5.8"/>
    <path fill="#3d8c36" d="M463.9,517.6c-90.4,0-109.3-41.5-109.3-76.3s2.7-5.9,6-5.9h26.7c2.9,0,5.4,2.1,5.9,5.1,4,27.2,16,40.9,70.7,40.9s62-9.8,62-32.9-5.3-23.2-72.9-29.8c-56.6-5.6-91.5-18-91.5-63.3s35.2-66.5,94-66.5,98.9,23,103,72.3c.2,1.7-.5,3.4-1.6,4.6-1.1,1.2-2.7,1.9-4.4,1.9h-26.8c-2.8,0-5.2-2-5.8-4.7-6.5-28.6-22.1-37.7-64.5-37.7s-53,16.5-53,29,6.5,19.4,70.6,27.9c63.5,8.4,93.6,20.3,93.6,64.9s-37.5,70.8-103,70.8"/>
  </g>
</svg>