<?xml version="1.0" encoding="UTF-8"?>
<svg xmlns="http://www.w3.org/2000/svg" version="1.1" viewBox="0 0 800 800">
  <g>
    <path fill="#ff6c37" d="M697.6,438.1c21-164.4-95-314.6-259.2-335.6-164-21-315,95-335.9,259.2-21,164,95,314.6,259.2,335.9,164.4,21,314.6-95,335.9-259.4Z"/>
    <g>
      <path fill="#fff" d="M508.2,292.7l-126.6,126.6-35.6-35.6c124.4-124.4,136.8-113.6,162.2-90.8h0Z"/>
      <path fill="#ff6c37" d="M381.7,422.3c-.8,0-1.4-.2-2-.8l-36-35.6c-1.2-1.2-1.2-3,0-4.2,126.6-126.6,139.8-114.6,166.4-90.6.6.6.8,1.2.8,2s-.2,1.4-.8,2l-126.6,126.2c-.2.6-1.2.8-1.8.8h0ZM350.2,383.6l31.4,31.4,122-122c-22.2-19.8-37.2-25.8-153.6,90.6h.1Z"/>
      <path fill="#fff" d="M418,455.5l-34.4-34.4,126.6-126.6c33.8,34.2-16.8,89.6-92,161h-.1Z"/>
      <path fill="#ff6c37" d="M418,458.5c-.8,0-1.4-.2-2-.8l-34.4-34.4c-.6-.6-.6-1.2-.6-2s.2-1.4.8-2l126.6-126.6c1.2-1.2,3-1.2,4.2,0,7.8,7.2,12,17.4,11.6,27.8-.6,33.2-38.4,75.6-103.8,137.4-.8.6-1.8.8-2.4.8h0ZM387.7,421.1c19.2,19.4,27.2,27.2,30.2,30.2,50.4-48,99.2-97.2,99.6-131,.2-7.8-2.6-15.6-7.8-21.6l-122,122.4Z"/>
      <path fill="#fff" d="M346.6,384.5l25.4,25.4c.6.6.6,1.2,0,1.8-.2.2-.4.2-.6.2l-52.8,11.4c-2.6.2-5-1.4-5.6-4.2-.2-1.4.2-3,1.2-3.8l30.6-30.6c.6-.6,1.4-.8,1.8-.2Z"/>
      <path fill="#ff6c37" d="M317.8,426.5c-4.4,0-7.8-3.6-7.8-8s.8-4.2,2.4-5.6l30.6-30.6c1.8-1.4,4.2-1.4,6,0l25.4,25.4c1.8,1.4,1.8,4.2,0,6s-1.2.8-2,1.2l-52.8,11.4c-.6,0-1.2.2-1.8.2h0ZM345.7,387.8l-29.4,29.4c-.6.6-.8,1.4-.2,2.4.2.8,1.2,1.2,2,.8l49.4-10.8-21.8-21.8Z"/>
      <path fill="#fff" d="M575.2,222.5c-19.2-18.6-50-18-68.6,1.4-18.6,19.4-18,50,1.4,68.6,15.8,15.2,39.8,18,58.8,6.6l-34.2-34.2,42.6-42.6h0Z"/>
      <path fill="#ff6c37" d="M541.6,309.2c-28.4,0-51.6-23-51.6-51.6s23-51.6,51.6-51.6,26,5,35.6,14.4c.6.6.8,1.2.8,2s-.2,1.4-.8,2l-40.4,40.4,31.8,31.8c1.2,1.2,1.2,3,0,4.2-.2.2-.4.4-.6.6-7.8,4.8-17,7.4-26.4,7.4v.2ZM541.6,212.3c-25.2,0-45.6,20.4-45.2,45.6,0,25.2,20.4,45.6,45.6,45.2,6.8,0,13.8-1.4,20-4.8l-31.4-31.2c-.6-.6-.8-1.2-.8-2s.2-1.4.8-2l40.2-40.2c-8-6.8-18.2-10.4-29-10.4h-.1Z"/>
      <path fill="#fff" d="M576,223.4l-.6-.6-42.8,42.2,33.8,33.8c3.2-2,6.6-4.4,9.2-7.2,19.2-18.8,19.2-49.4.2-68.4h.1Z"/>
      <path fill="#ff6c37" d="M566.8,302.3c-.8,0-1.4-.2-2-.8l-34.2-34.2c-.6-.6-.8-1.2-.8-2s.2-1.4.8-2l42.6-42.6c1.2-1.2,3-1.2,4.2,0l.8.6c20,20,20,52.4.2,72.8-3,3-6.2,5.6-9.8,7.8-.8.2-1.4.6-1.8.6h0ZM536.8,265.1l30.2,30.2c2.4-1.4,4.8-3.6,6.6-5.4,17-17,18-45,1.4-63l-38.4,38h.1Z"/>
      <path fill="#fff" d="M513.4,298.1c-7.2-7.2-18.8-7.2-26,0l-113,113,18.8,18.8,119.6-105c7.8-6.6,8.4-18.2,1.8-26-.6-.2-.8-.6-1.2-.8h0Z"/>
      <path fill="#ff6c37" d="M392.8,433.1c-.8,0-1.4-.2-2-.8l-18.8-18.8c-1.2-1.2-1.2-3,0-4.2l113-113c8.4-8.4,21.8-8.4,30.2,0,8.4,8.4,8.4,21.8,0,30.2l-.8.8-119.6,105c-.2.6-.8.8-1.8.8h-.1ZM378.4,411.1l14.6,14.6,117.6-103.2c6.6-5.4,7.2-15.2,1.8-21.8-5.4-6.6-15.2-7.2-21.8-1.8-.2.2-.6.6-1.2.8l-111,111.2h0Z"/>
      <path fill="#fff" d="M287.5,539.9c-1.2.6-1.8,1.8-1.4,3l5,21.6c1.2,3-.6,6.6-3.8,7.4-2.4.8-5,0-6.6-1.8l-33-32.6,107.6-107.6,37.2.6,25.2,25.2c-6,5-42.2,40.2-130.2,84.2h0Z"/>
      <path fill="#ff6c37" d="M285.1,574.9c-2.4,0-4.8-.8-6.2-2.6l-32.6-32.6c-.6-.6-.8-1.2-.8-2s.2-1.4.8-2l107.6-107.6c.6-.6,1.4-.8,2-.8l37.2.6c.8,0,1.4.2,2,.8l25.2,25.2c.6.6.8,1.4.8,2.4s-.2,1.4-1.2,2l-2,1.8c-31.8,27.8-75,55.8-128.6,82.4l5,21.2c.8,3.8-.8,8-4.4,10.2-1.8.8-3.2,1.2-4.8,1.2h0ZM252.1,537.5l30.8,30.6c.8,1.4,2.6,2,4.2,1.2,1.4-.8,2-2.6,1.2-4.2l-5-21.6c-.6-2.6.6-5,3-6.2,53-26.6,96-54.2,127.4-81.6l-22.2-22.2-34.4-.6-105,104.6Z"/>
      <path fill="#fff" d="M222.1,563.3l25.8-25.8,38.4,38.4-61.2-4.2c-2.6-.2-4.4-2.6-4.2-5.4,0-1.2.2-2.4,1.2-3h0Z"/>
      <path fill="#ff6c37" d="M286.3,578.5l-61.4-4.2c-4.4-.2-7.4-4.2-7.2-8.6.2-1.8.8-3.6,2.4-4.8l25.8-25.8c1.2-1.2,3-1.2,4.2,0l38.4,38.4c.8.8,1.2,2,.6,3.2s-1.4,1.8-2.6,1.8h-.1ZM247.9,541.7l-23.6,23.6c-.8.6-.8,2,0,2.6.2.2.6.6,1.2.6l53,3.6-30.6-30.6h0Z"/>
      <path fill="#ff6c37" d="M344.8,443.5c-1.8,0-3-1.4-3-3s.2-1.4.8-2l29-29c1.2-1.2,3-1.2,4.2,0l18.8,18.8c.8.8,1.2,1.8.8,3-.2.8-1.2,1.8-2.4,2l-48,10.2h-.6.2ZM373.9,415.7l-19.8,19.8,32.4-6.8-12.6-12.8h0Z"/>
      <path fill="#fff" d="M392.5,430.3l-33,7.2c-2.4.6-4.8-.8-5.4-3.2-.2-1.4,0-3,1.2-4.2l18.2-18.2,18.8,18.6h.1Z"/>
      <path fill="#ff6c37" d="M358.9,440.5c-4.2,0-7.4-3.2-7.4-7.4s.8-3.8,2-5.4l18.2-18.2c1.2-1.2,3-1.2,4.2,0l18.8,18.8c.8.8,1.2,1.8.8,3-.2.8-1.2,1.8-2.4,2l-33,7.2h-1.4.1ZM373.9,415.7l-16.2,16.2c-.6.6-.6,1.2-.2,1.8s.8.8,1.8.8l27.6-6-12.8-12.8h-.1Z"/>
      <path fill="#ff6c37" d="M576.4,252.2c-.6-1.8-2.6-2.6-4.4-2s-2.6,2.6-2,4.4c0,.2.2.6.2.8,1.8,3.6,1.2,8-1.2,11.4-1.2,1.4-.8,3.6.2,4.8,1.4,1.2,3.6.8,4.8-.6,4.4-5.6,5.4-12.8,2.4-18.8h0Z"/>
    </g>
  </g>
</svg>