<?xml version="1.0" encoding="UTF-8"?>
<svg xmlns="http://www.w3.org/2000/svg" version="1.1" viewBox="0 0 800 800">
  <g>
    <rect fill="#223" y="0" width="800" height="800"/>
    <path fill="#4be" d="M650,400.1c0-33.1-41.5-64.5-105.1-84,14.7-64.8,8.2-116.4-20.6-132.9-6.6-3.9-14.4-5.7-22.8-5.7v22.7c4.7,0,8.5.9,11.6,2.6,13.9,7.9,19.9,38.2,15.2,77.2-1.1,9.6-3,19.7-5.2,30-20-4.9-41.8-8.7-64.7-11.1-13.8-18.9-28-36-42.4-51,33.2-30.9,64.4-47.8,85.6-47.8v-22.7c-28,0-64.7,20-101.8,54.6-37.1-34.4-73.8-54.2-101.8-54.2v22.7c21.1,0,52.4,16.8,85.6,47.5-14.3,15-28.5,32-42.1,50.9-23,2.4-44.8,6.2-64.8,11.2-2.3-10.2-4.1-20.1-5.3-29.6-4.8-38.9,1.1-69.2,14.9-77.3,3.1-1.8,7-2.6,11.7-2.6v-22.7c-8.6,0-16.3,1.8-23,5.7-28.6,16.5-35.1,68-20.3,132.6-63.4,19.6-104.7,50.9-104.7,83.9s41.5,64.5,105.1,84c-14.7,64.8-8.2,116.4,20.6,132.9,6.6,3.9,14.4,5.7,22.9,5.7,28,0,64.7-20,101.8-54.6,37.1,34.4,73.8,54.2,101.8,54.2s16.3-1.8,23-5.7c28.6-16.5,35.1-68,20.3-132.6,63.2-19.5,104.5-50.9,104.5-83.9h0ZM517.3,332.1c-3.8,13.1-8.5,26.7-13.8,40.3-4.2-8.2-8.6-16.3-13.4-24.5-4.7-8.2-9.7-16.1-14.7-23.8,14.5,2.1,28.4,4.8,41.8,8.1h0ZM470.6,440.6c-7.9,13.8-16.1,26.8-24.6,38.9-15.2,1.3-30.6,2-46.1,2s-30.8-.7-45.9-1.9c-8.5-12.1-16.7-25.1-24.7-38.7-7.7-13.4-14.8-26.9-21.2-40.6,6.3-13.7,13.5-27.3,21.1-40.7,7.9-13.8,16.1-26.8,24.6-38.9,15.2-1.3,30.6-2,46.1-2s30.8.7,45.9,1.9c8.5,12.1,16.7,25.1,24.7,38.7,7.7,13.4,14.8,26.9,21.2,40.6-6.4,13.7-13.5,27.3-21.1,40.7h0ZM503.5,427.4c5.5,13.7,10.2,27.3,14.1,40.6-13.4,3.3-27.4,6-42,8.2,5-7.8,10-15.9,14.7-24.2,4.7-8.2,9.1-16.4,13.2-24.6h0ZM400.2,536.1c-9.5-9.8-19-20.7-28.3-32.6,9.2.4,18.5.7,28,.7s19.1-.2,28.3-.7c-9.2,11.9-18.7,22.8-28,32.6ZM324.4,476.1c-14.5-2.1-28.4-4.8-41.8-8.1,3.8-13.1,8.5-26.7,13.8-40.3,4.2,8.2,8.6,16.3,13.4,24.5s9.7,16.1,14.7,23.8ZM399.7,264c9.5,9.8,19,20.7,28.3,32.6-9.2-.4-18.5-.7-28-.7s-19.1.2-28.3.7c9.2-11.9,18.7-22.8,28-32.6ZM324.3,324c-5,7.8-10,15.9-14.7,24.2-4.7,8.2-9.1,16.3-13.2,24.5-5.5-13.7-10.2-27.3-14.1-40.6,13.4-3.2,27.4-5.9,42-8.1h0ZM232,451.6c-36.1-15.4-59.4-35.6-59.4-51.6s23.3-36.3,59.4-51.6c8.8-3.8,18.3-7.1,28.2-10.3,5.8,20,13.5,40.8,22.9,62.1-9.4,21.2-16.9,41.9-22.6,61.8-10.1-3.2-19.7-6.6-28.5-10.4h0ZM286.9,597.3c-13.9-7.9-19.9-38.2-15.2-77.2,1.1-9.6,3-19.7,5.2-30,20,4.9,41.8,8.7,64.7,11.1,13.8,18.9,28,36,42.4,51-33.2,30.9-64.4,47.8-85.6,47.8-4.6-.1-8.5-1-11.5-2.8h0ZM528.6,519.6c4.8,38.9-1.1,69.2-14.9,77.3-3.1,1.8-7,2.6-11.7,2.6-21.1,0-52.4-16.8-85.6-47.5,14.3-15,28.5-32,42.1-50.9,23-2.4,44.8-6.2,64.8-11.2,2.3,10.3,4.2,20.2,5.3,29.7ZM567.9,451.6c-8.8,3.8-18.3,7.1-28.2,10.3-5.8-20-13.5-40.8-22.9-62.1,9.4-21.2,16.9-41.9,22.6-61.8,10.1,3.2,19.7,6.6,28.6,10.4,36.1,15.4,59.4,35.6,59.4,51.6-.1,16-23.4,36.3-59.5,51.6h0Z"/>
    <circle fill="#4be" cx="399.9" cy="400.1" r="46.6"/>
  </g>
</svg>