<?xml version="1.0" encoding="UTF-8"?>
<svg xmlns="http://www.w3.org/2000/svg" version="1.1" viewBox="0 0 800 800">
  <g>
    <path fill="#764abc" d="M496.4,492.6c18.5-1.9,32.5-17.5,31.8-36.3-.6-18.8-16.5-33.8-35.6-33.8h-1.3c-19.7.6-35,16.9-34.4,36.3.6,9.4,4.5,17.5,10.2,23.1-21.6,41.9-54.7,72.6-104.3,98.2-33.7,17.5-68.7,23.8-103.7,19.4-28.6-3.8-50.9-16.3-64.9-36.9-20.4-30.7-22.3-63.8-5.1-97,12.1-23.8,31.2-41.3,43.3-50-2.5-8.1-6.4-21.9-8.3-31.9-92.3,65.7-82.7,154.5-54.7,196.4,21,31.3,63.6,50.7,110.7,50.7s25.4-1.3,38.2-4.4c81.4-15.6,143.2-63.2,178.2-133.9ZM608.4,415c-48.4-55.7-119.6-86.3-201.1-86.3h-10.2c-5.7-11.3-17.8-18.8-31.2-18.8h-1.3c-19.7.6-35,16.9-34.4,36.3.6,18.8,16.5,33.8,35.6,33.8h1.3c14-.6,26.1-9.4,31.2-21.3h11.5c48.4,0,94.2,13.8,135.5,40.7,31.8,20.6,54.7,47.5,67.4,80.1,10.8,26.3,10.2,51.9-1.3,73.8-17.8,33.2-47.7,51.3-87.2,51.3s-49.6-7.5-62.4-13.1c-7,6.3-19.7,16.3-28.6,22.5,27.4,12.5,55.4,19.4,82.1,19.4,61.1,0,106.3-33.2,123.4-66.3,18.5-36.3,17.2-98.8-30.5-152ZM285.2,503.2c.6,18.8,16.5,33.8,35.6,33.8h1.3c19.7-.6,35-16.9,34.4-36.3-.6-18.8-16.5-33.8-35.6-33.8h-1.3c-1.3,0-3.2,0-4.5.6-26.1-42.5-36.9-88.8-33.1-138.9,2.5-37.5,15.3-70.1,37.5-97,18.5-23.1,54.1-34.4,78.3-35,67.4-1.3,96.1,81.3,98,114.5,8.3,1.9,22.3,6.3,31.8,9.4-7.6-101.3-71.3-153.9-132.3-153.9s-110.1,40.7-131.1,100.7c-29.3,80.1-10.2,157,25.5,217.7-3.2,4.4-5.1,11.3-4.5,18.1h0Z"/>
  </g>
</svg>