<?xml version="1.0" encoding="UTF-8"?>
<svg xmlns="http://www.w3.org/2000/svg" version="1.1" viewBox="0 0 800 800">
  <g>
    <path fill="#fff" d="M400,100l265.2,150v300l-265.2,150-265.2-150V250L400,100Z"/>
    <path fill="#8ed6fb" d="M617.8,539.7l-209,118.3v-92.1l130.3-71.7,78.8,45.5h0ZM632.1,526.7v-247.3l-76.5,44.2v159l76.5,44.1h0ZM181.4,539.7l209,118.3v-92.1l-130.3-71.7-78.7,45.5ZM167,526.7v-247.3l76.5,44.2v159l-76.5,44.1ZM176,263.4l214.4-121.3v89l-137.4,75.6-1.1.6s-75.9-43.9-75.9-43.9ZM623.2,263.4l-214.4-121.3v89l137.4,75.5,1.1.6,75.9-43.9h0Z"/>
    <path fill="#1c78c0" d="M390.4,544.9l-128.5-70.7v-140l128.5,74.2v136.5ZM408.8,544.9l128.5-70.6v-140l-128.5,74.2v136.5ZM270.6,318l129-70.9,129,70.9-129,74.5-129-74.5h0Z"/>
  </g>
</svg>